<svg width="26" height="26" viewBox="0 0 26 26" fill="none" xmlns="http://www.w3.org/2000/svg">
    <path d="M22.8479 1.08975C22.7244 0.966007 22.5207 0.97059 22.4041 1.10121L16.3455 7.82255C13.6594 10.8979 14.8262 14.3881 18.7478 15.4078C19.5235 15.6095 22.3263 16.3245 23.3719 16.5903C23.5435 16.6339 23.7151 16.5239 23.7494 16.3497L24.2161 13.8472C24.2482 13.6822 24.1384 13.5218 23.9736 13.4897L23.6213 13.4187L17.6199 12.2225L17.2698 12.1537C17.0319 12.1056 16.9403 11.8123 17.1096 11.6381L17.3568 11.3815L21.8092 6.78674L21.9876 6.60341L24.9094 3.58763C25.0261 3.46617 25.0238 3.27597 24.9071 3.1568L22.8479 1.08975Z" fill="#2E4CFF" stroke="#2E4CFF" stroke-width="0.5"/>
    <path d="M7.2511 10.5906C6.47565 10.3889 3.67349 9.67384 2.62812 9.40797C2.45656 9.36442 2.28271 9.47444 2.25068 9.64863L1.78404 12.1515C1.75202 12.3165 1.86181 12.4769 2.02651 12.509L2.37878 12.58L8.37883 13.7765L8.72881 13.8452C8.96671 13.8933 9.05821 14.1867 8.88894 14.3609L8.64189 14.6176L4.19046 19.213L4.01204 19.3963L1.08636 22.4126C0.969699 22.534 0.971987 22.7243 1.08865 22.8435L3.14966 24.9085C3.27319 25.0323 3.47677 25.0277 3.59343 24.8971L9.65066 18.1747C12.3362 15.0989 11.1695 11.6083 7.24882 10.5883L7.2511 10.5906Z" fill="#2E4CFF" stroke="#2E4CFF" stroke-width="0.5"/>
    <path d="M18.6294 17.5737C17.5582 16.7247 15.7171 14.8629 13.3319 15.5461C12.0469 15.9149 11.1094 17.0128 11.1094 18.6825V21.4893C11.1094 21.6508 11.2551 21.7817 11.4349 21.7817H14.3763C14.5682 21.7817 14.7188 21.6333 14.7018 21.4631L14.403 18.5166C14.3763 18.2438 14.7431 18.0888 14.9592 18.2831L18.3525 21.3561L22.2776 24.9116C22.4039 25.0273 22.6104 25.0273 22.7391 24.9116L24.9082 22.9625C25.0418 22.8425 25.0345 22.6482 24.8936 22.5369L18.6294 17.5715V17.5737Z" fill="#2E4CFF" stroke="#2E4CFF" stroke-width="0.5"/>
    <path d="M7.37461 8.42513C8.44577 9.27396 10.2869 11.1353 12.6721 10.4523C13.957 10.0835 14.8946 8.98593 14.8946 7.31662V4.51045C14.8946 4.34897 14.7489 4.21805 14.5691 4.21805H11.6277C11.4358 4.21805 11.2852 4.36643 11.3046 4.53663L11.6034 7.48246C11.6301 7.75522 11.2633 7.91015 11.0472 7.71595L7.65394 4.64356L3.72391 1.08674C3.59761 0.971087 3.39115 0.971087 3.26242 1.08674L1.0958 3.03317C0.962211 3.15318 0.969498 3.34739 1.11038 3.45868L7.37461 8.42295V8.42513Z" fill="#2E4CFF" stroke="#2E4CFF" stroke-width="0.5"/>
</svg>
